HIERARCHY
ROOT Hips
{
	OFFSET 0.000000 0.000000 0.000000 
	CHANNELS 6 Xposition Yposition Zposition Yrotation Zrotation Xrotation 
	JOINT Lumbar
	{
		OFFSET 0.000000 0.000000 0.000000 
		CHANNELS 3 Zrotation Xrotation Yrotation
		JOINT Neck
		{
			OFFSET 0.000000 0.445665 0.000000 
			CHANNELS 3 Zrotation Xrotation Yrotation
			End Site
			{
				OFFSET 0.000000 0.227535 0.000000 
			}
		}
		JOINT RightShoulder
		{
			OFFSET 0.019635 0.377685 0.194865 
			CHANNELS 3 Zrotation Xrotation Yrotation
			JOINT RightElbow
			{
				OFFSET 0.000000 -0.243375 0.000000 
				CHANNELS 2 Zrotation Yrotation
				JOINT RightWrist
				{
					OFFSET 0.000000 -0.264825 0.000000 
					CHANNELS 2 Zrotation Xrotation
					End Site
					{
						OFFSET 0.006600 -0.176220 0.000990 
					}
				}
			}
		}
		JOINT LeftShoulder
		{
			OFFSET 0.019635 0.377685 -0.194865 
			CHANNELS 3 Zrotation Xrotation Yrotation
			JOINT LeftElbow
			{
				OFFSET 0.000000 -0.243375 0.000000 
				CHANNELS 2 Zrotation Yrotation
				JOINT LeftWrist
				{
					OFFSET 0.000000 -0.264825 0.000000 
					CHANNELS 2 Zrotation Xrotation
					End Site
					{
						OFFSET 0.006600 -0.176220 -0.000990 
					}
				}
			}
		}
	}
	JOINT RightHip
	{
		OFFSET 0.052140 -0.069960 0.075570 
		CHANNELS 3 Zrotation Xrotation Yrotation
		JOINT RightKnee
		{
			OFFSET 0.000000 -0.402270 0.000000 
			CHANNELS 1 Zrotation
			JOINT RightAnkle
			{
				OFFSET 0.000000 -0.404085 0.000000 
				CHANNELS 3 Zrotation Xrotation Yrotation
				End Site
				{
					OFFSET 0.204105 -0.089430 0.008415 
				}
			}
		}
	}
	JOINT LeftHip
	{
		OFFSET 0.052140 -0.069960 -0.075570 
		CHANNELS 3 Zrotation Xrotation Yrotation
		JOINT LeftKnee
		{
			OFFSET 0.000000 -0.402270 0.000000 
			CHANNELS 1 Zrotation
			JOINT LeftAnkle
			{
				OFFSET 0.000000 -0.404085 0.000000 
				CHANNELS 3 Zrotation Xrotation Yrotation
				End Site
				{
					OFFSET 0.204105 -0.089430 -0.008415 
				}
			}
		}
	}
}
MOTION
Frames: 11
Frame Time: 0.02
-0.00097 -0.00352 0.00013 28.25462 -18.97745 -3.37262 41.13618 -0.12036 -9.38612 -11.72608 3.05867 -0.41277 -19.20286 -8.641 3.1333 23.5986 56.80029 -2.11897 -4.88608 -23.65692 12.30517 -15.69016 31.83401 -78.91108 7.8043 3.27155 31.58637 -3.91122 -10.45828 -20.57651 -6.31489 -4.23264 -2.85113 36.19863 3.45636 5.01389 -24.34684 -6.92674 2.60355 1.98218
6e-05 -0.00309 -0.00061 28.22682 -18.8973 -3.36702 41.27378 -0.14454 -9.20506 -11.73175 3.04877 -0.41312 -19.23714 -8.16485 1.41462 23.76068 64.55391 -0.16858 -3.68963 -23.61354 11.78572 -14.28414 31.73909 -84.75129 9.61185 2.32804 31.44122 -3.8345 -10.10565 -20.53667 -6.34408 -4.26151 -2.87032 36.04484 3.42074 4.78578 -24.32816 -6.92715 2.63195 1.99919
0.00109 -0.00268 -0.00135 28.19903 -18.81734 -3.36145 41.41104 -0.16864 -9.02449 -11.73732 3.03892 -0.41346 -19.27123 -7.69082 -0.29597 23.92226 72.27402 1.77339 -2.49834 -23.57031 11.26833 -12.88389 31.64457 -90.56656 11.41168 1.38857 31.29645 -3.75793 -9.75381 -20.49696 -6.3732 -4.29033 -2.88947 35.89143 3.3852 4.55823 -24.30955 -6.92755 2.6603 2.01617
0.00212 -0.00226 -0.0021 28.1713 -18.73743 -3.35588 41.54823 -0.19275 -8.84398 -11.74296 3.02905 -0.41381 -19.30538 -7.21626 -2.00881 24.08384 80.00188 3.71731 -1.30586 -23.52706 10.75057 -11.48252 31.54995 -96.38714 13.21316 0.44823 31.15173 -3.68143 -9.4022 -20.45724 -6.40231 -4.31911 -2.9086 35.7381 3.34967 4.33079 -24.29093 -6.92796 2.68862 2.03314
0.00315 -0.00184 -0.00284 28.14358 -18.65732 -3.35027 41.68571 -0.21696 -8.66301 -11.74872 3.01914 -0.41416 -19.33977 -6.7393 -3.73104 24.24592 87.76772 5.67077 -0.10753 -23.48366 10.23053 -10.07461 31.45489 -102.2367 15.02359 -0.4968 31.00668 -3.60481 -9.04996 -20.41742 -6.43146 -4.34794 -2.92777 35.58443 3.31407 4.10287 -24.27224 -6.92837 2.71698 2.05013
0.00417 -0.00142 -0.00358 28.11565 -18.5777 -3.34477 41.82252 -0.24081 -8.48332 -11.75388 3.00939 -0.41451 -19.37322 -6.27141 -5.4172 24.40645 95.39184 7.58864 1.06898 -23.44077 9.71869 -8.69038 31.36152 -107.98041 16.80131 -1.42465 30.8625 -3.52834 -8.69899 -20.37794 -6.46052 -4.37674 -2.94689 35.43157 3.27867 3.87611 -24.25378 -6.92875 2.74529 2.06709
0.0052 -0.00099 -0.00433 28.08817 -18.49719 -3.33907 41.96052 -0.26534 -8.30122 -11.76024 2.99934 -0.41486 -19.4085 -5.78595 -7.17331 24.56988 103.28981 9.57527 2.28765 -23.3969 9.19111 -7.26076 31.26485 -113.92656 18.6416 -2.38538 30.71672 -3.45165 -8.34579 -20.3378 -6.48975 -4.40555 -2.96608 35.27726 3.2429 3.64726 -24.23489 -6.9292 2.77368 2.0841
0.00623 -0.00058 -0.00507 28.0603 -18.4175 -3.33355 42.09742 -0.28927 -8.1214 -11.76553 2.98955 -0.41521 -19.44214 -5.31637 -8.86631 24.73071 110.94058 11.49985 3.46826 -23.35397 8.67768 -5.87166 31.17122 -119.69371 20.42657 -3.31704 30.57241 -3.37519 -7.99475 -20.29827 -6.51881 -4.43435 -2.9852 35.12428 3.20748 3.42034 -24.21639 -6.92959 2.80199 2.10105
0.00725 -0.00017 -0.00581 28.03182 -18.33877 -3.32826 42.23308 -0.31239 -7.94404 -11.76937 2.98015 -0.41555 -19.47357 -4.86739 -10.47682 24.88816 118.26947 13.34355 4.59934 -23.31201 8.18285 -4.53707 31.08128 -125.21274 22.13482 -4.20838 30.42984 -3.29887 -7.64571 -20.25946 -6.54771 -4.4632 -3.00427 34.97285 3.17242 3.19565 -24.19838 -6.92987 2.83024 2.11797
0.00832 0.00029 -0.0066 28.00646 -18.25439 -3.32168 42.37619 -0.33994 -7.75156 -11.78111 2.9687 -0.41591 -19.51708 -4.30349 -12.5459 25.06443 127.39112 15.63749 6.00636 -23.26391 7.58494 -2.90383 30.97006 -132.07129 24.25715 -5.31733 30.27708 -3.22133 -7.28322 -20.21645 -6.57767 -4.49195 -3.02373 34.81226 3.13511 2.95771 -24.1776 -6.9307 2.85896 2.13519
0.00927 0.00064 -0.00726 27.97479 -18.18202 -3.31781 42.50334 -0.35829 -7.59159 -11.77646 2.96146 -0.41624 -19.53554 -3.97972 -13.65793 25.20141 132.76871 16.99128 6.83704 -23.22913 7.20198 -1.89103 30.90376 -136.16029 25.5234 -5.97638 30.14597 -3.14663 -6.95041 -20.18233 -6.6053 -4.52077 -3.0423 34.6712 3.10263 2.74802 -24.16262 -6.93039 2.88661 2.15172
